<svg xmlns="http://www.w3.org/2000/svg" xmlns:xlink="http://www.w3.org/1999/xlink" version="1.1" x="0px" y="0px" viewBox="0 0 100 125" enable-background="new 0 0 100 100" xml:space="preserve"><g><path d="M79.7,20.3c-16.4-16.4-43-16.4-59.4,0s-16.4,43,0,59.4c16.4,16.4,43,16.4,59.4,0S96.1,36.7,79.7,20.3z M77.6,77.6   c-15.2,15.2-39.9,15.2-55.2,0c-15.2-15.2-15.2-39.9,0-55.2c15.2-15.2,39.9-15.2,55.2,0C92.8,37.6,92.8,62.4,77.6,77.6z"/><path d="M64.1,31.7L57.7,38c-0.5,0.5-2.8,1.6-3.5,1.5L28,38c-0.4,0.5-0.6,4,0,4.2l18.7,5.2c0.6,0.2,0.8,0.8,0.3,1.3l-8.2,8.7   l-9.4,0.1c-0.3,0-0.7,0.3-0.7,0.6l-0.4,2.3c-0.1,0.3,0.1,0.7,0.5,0.8L36,64l2.7,7.2c0.1,0.3,0.5,0.5,0.8,0.5l2.3-0.4   c0.3-0.1,0.6-0.4,0.6-0.7l0.1-9.4l8.7-8.2c0.5-0.5,1.1-0.3,1.3,0.3L57.7,72c0.2,0.6,3.7,0.4,4.2,0l-1.5-26.2   c-0.1-0.7,0.6-2.5,1.5-3.5c0.9-0.9,3.9-3.9,6.4-6.4c0.7-0.8,1.5-2.8,0-4.2C66.9,30.3,65.4,30.3,64.1,31.7z"/></g><text x="0" y="115" fill="#000000" font-size="5px" font-weight="bold" font-family="'Helvetica Neue', Helvetica, Arial-Unicode, Arial, Sans-serif">Created by Alex Podolsky</text><text x="0" y="120" fill="#000000" font-size="5px" font-weight="bold" font-family="'Helvetica Neue', Helvetica, Arial-Unicode, Arial, Sans-serif">from the Noun Project</text></svg>